<svg width="19" height="19" viewBox="0 0 19 19" fill="none" xmlns="http://www.w3.org/2000/svg">
<path id="Vector" d="M17.5897 10.4751C17.0036 9.88898 15.9445 9.36706 14.774 9.09849C15.9428 8.83162 17.0019 8.30969 17.5897 7.72189C18.9781 6.33685 18.794 3.90288 16.7434 1.85234C14.7571 -0.134022 12.2589 -0.382317 10.8722 1.00442C10.2861 1.59053 9.76417 2.64958 9.49561 3.82012C9.22873 2.65127 8.70512 1.59053 8.119 1.00442C6.73227 -0.382317 4.29999 -0.199896 2.24776 1.85234C0.263092 3.83701 0.013108 6.33684 1.39984 7.72358C1.98595 8.30969 3.04501 8.83162 4.21554 9.10018C3.0467 9.36706 1.98764 9.88898 1.39984 10.4768C0.0131084 11.8635 0.197218 14.2975 2.24776 16.348C4.23412 18.3344 6.73227 18.5827 8.11901 17.1959C8.70512 16.6098 9.22704 15.5508 9.49561 14.3802C9.76248 15.5491 10.2861 16.6098 10.8722 17.1959C12.2589 18.5827 14.6929 18.3986 16.7434 16.348C18.7281 14.36 18.9781 11.8635 17.5897 10.4751Z" fill="white"/>
</svg>
