<svg width="106" height="18" viewBox="0 0 106 18" fill="none" xmlns="http://www.w3.org/2000/svg">
<g id="Group_57_1_">
<path id="Rectangle_166_1_" d="M97 2.30005L103.8 9.10005L97 15.9" stroke="#B5A486" stroke-width="2.5625" stroke-linecap="square" stroke-linejoin="round"/>
<path id="Ellipse_32_1_" d="M4.3 13.2001C6.67482 13.2001 8.6 11.2749 8.6 8.9001C8.6 6.52527 6.67482 4.6001 4.3 4.6001C1.92518 4.6001 0 6.52527 0 8.9001C0 11.2749 1.92518 13.2001 4.3 13.2001Z" fill="#B5A486"/>
<path id="Union_1_" fill-rule="evenodd" clip-rule="evenodd" d="M12.3996 10.6C13.3996 10.6 14.1996 9.8 14.1996 8.8C14.1996 7.8 13.3996 7 12.3996 7C11.3996 7 10.5996 7.8 10.5996 8.8C10.5996 9.8 11.3996 10.6 12.3996 10.6ZM17.8996 10.6C18.8996 10.6 19.6996 9.8 19.6996 8.8C19.6996 7.8 18.8996 7 17.8996 7C16.8996 7 16.0996 7.8 16.0996 8.8C16.0996 9.8 16.8996 10.6 17.8996 10.6ZM23.3996 10.6C24.3996 10.6 25.1996 9.8 25.1996 8.8C25.1996 7.8 24.3996 7 23.3996 7C22.3996 7 21.5996 7.8 21.5996 8.8C21.5996 9.8 22.3996 10.6 23.3996 10.6ZM30.5996 8.9C30.5996 9.9 29.7996 10.7 28.7996 10.7C27.7996 10.7 26.9996 9.9 26.9996 8.9C26.9996 7.9 27.7996 7.1 28.7996 7.1C29.7996 7.1 30.5996 7.9 30.5996 8.9ZM34.3996 10.6C35.3996 10.6 36.1996 9.8 36.1996 8.8C36.1996 7.8 35.3996 7 34.3996 7C33.3996 7 32.5996 7.8 32.5996 8.8C32.5996 9.8 33.3996 10.6 34.3996 10.6ZM41.5996 8.9C41.5996 9.9 40.7996 10.7 39.7996 10.7C38.7996 10.7 37.9996 9.9 37.9996 8.9C37.9996 7.9 38.7996 7.1 39.7996 7.1C40.7996 7.1 41.5996 7.9 41.5996 8.9ZM45.3996 10.6C46.3996 10.6 47.1996 9.8 47.1996 8.8C47.1996 7.8 46.3996 7 45.3996 7C44.3996 7 43.5996 7.8 43.5996 8.8C43.5996 9.8 44.3996 10.6 45.3996 10.6ZM52.5996 8.9C52.5996 9.9 51.7996 10.7 50.7996 10.7C49.7996 10.7 48.9996 9.9 48.9996 8.9C48.9996 7.9 49.7996 7.1 50.7996 7.1C51.7996 7.1 52.5996 7.9 52.5996 8.9ZM56.3996 10.6C57.3996 10.6 58.1996 9.8 58.1996 8.8C58.1996 7.8 57.3996 7 56.3996 7C55.3996 7 54.5996 7.8 54.5996 8.8C54.5996 9.8 55.3996 10.6 56.3996 10.6ZM63.5996 8.9C63.5996 9.9 62.7996 10.7 61.7996 10.7C60.7996 10.7 59.9996 9.9 59.9996 8.9C59.9996 7.9 60.7996 7.1 61.7996 7.1C62.7996 7.1 63.5996 7.9 63.5996 8.9ZM67.3996 10.6C68.3996 10.6 69.1996 9.8 69.1996 8.8C69.1996 7.8 68.3996 7 67.3996 7C66.3996 7 65.5996 7.8 65.5996 8.8C65.5996 9.8 66.3996 10.6 67.3996 10.6ZM74.5996 8.9C74.5996 9.9 73.7996 10.7 72.7996 10.7C71.7996 10.7 70.9996 9.9 70.9996 8.9C70.9996 7.9 71.7996 7.1 72.7996 7.1C73.7996 7.1 74.5996 7.9 74.5996 8.9ZM78.3996 10.6C79.3996 10.6 80.1996 9.8 80.1996 8.8C80.1996 7.8 79.3996 7 78.3996 7C77.3996 7 76.5996 7.8 76.5996 8.8C76.5996 9.8 77.3996 10.6 78.3996 10.6ZM85.5996 8.9C85.5996 9.9 84.7996 10.7 83.7996 10.7C82.7996 10.7 81.9996 9.9 81.9996 8.9C81.9996 7.9 82.7996 7.1 83.7996 7.1C84.7996 7.1 85.5996 7.9 85.5996 8.9ZM89.3996 10.6C90.3996 10.6 91.1996 9.8 91.1996 8.8C91.1996 7.8 90.3996 7 89.3996 7C88.3996 7 87.5996 7.8 87.5996 8.8C87.5996 9.8 88.3996 10.6 89.3996 10.6ZM96.5996 8.9C96.5996 9.9 95.7996 10.7 94.7996 10.7C93.7996 10.7 92.9996 9.9 92.9996 8.9C92.9996 7.9 93.7996 7.1 94.7996 7.1C95.7996 7.1 96.5996 7.9 96.5996 8.9Z" fill="#B5A486"/>
</g>
</svg>
