<svg width="420" height="272" viewBox="0 0 420 272" fill="none" xmlns="http://www.w3.org/2000/svg">
<rect y="-0.00012207" width="124" height="124" rx="62" fill="white"/>
<mask id="mask0_209_1578" style="mask-type:luminance" maskUnits="userSpaceOnUse" x="46" y="28" width="31" height="33">
<path fill-rule="evenodd" clip-rule="evenodd" d="M46.0073 28.958H76.6929V60.5343H46.0073V28.958Z" fill="white"/>
</mask>
<g mask="url(#mask0_209_1578)">
<path fill-rule="evenodd" clip-rule="evenodd" d="M66.0337 39.6126C64.1819 41.2119 62.3902 42.8818 60.6549 44.6074C58.9352 46.3494 57.2735 48.1463 55.6697 49.9937C54.3777 51.469 53.134 52.9838 51.9541 54.5512C51.5569 54.1124 51.1886 53.6505 50.8522 53.1672C50.5018 52.666 50.1773 52.1492 49.8988 51.6064C49.7132 51.2463 49.5491 50.8772 49.3969 50.503C48.7004 48.7923 48.3433 46.9531 48.3871 45.1161C48.4346 43.3474 48.8237 41.604 49.5335 40.0061C50.2448 38.4104 51.2784 36.9692 52.5362 35.7819C55.0504 33.3947 58.4103 32.0122 61.8711 31.9297C65.2674 31.8399 68.7557 32.9292 71.5513 35.2042C69.6579 36.6017 67.7927 38.0458 66.0337 39.6126M72.8066 34.181C71.4901 32.6359 69.8365 31.3327 67.958 30.4232C66.0794 29.5091 63.9818 29.0205 61.8708 28.9597C59.7599 28.927 57.6259 29.3161 55.6642 30.1343C53.7024 30.9496 51.9204 32.1799 50.4569 33.7028C47.5336 36.759 45.9142 40.9632 46.0115 45.116C46.0397 47.109 46.4733 49.0766 47.2344 50.9017C47.371 51.2314 47.5269 51.5529 47.6858 51.8729C47.9621 52.4283 48.2665 52.9681 48.6058 53.4864C49.2429 54.4613 49.975 55.3709 50.8141 56.1736C53.7537 59.03 57.8323 60.6198 61.8708 60.5307C65.9213 60.4594 69.8232 58.6135 72.4658 55.7117C73.1133 55.0101 73.6895 54.2527 74.1951 53.4537L73.9627 53.4188C73.8773 53.4062 73.7934 53.3936 73.7088 53.381C73.2024 54.0604 72.6433 54.6982 72.024 55.2699C69.2448 57.8294 65.5158 59.1422 61.8708 59.0456C58.3862 58.9847 55.0063 57.545 52.5478 55.1571C54.3232 54.0396 55.9084 52.8167 57.4499 51.564C59.3114 50.0092 61.0682 48.3868 62.7582 46.7028C64.4422 45.0121 66.0519 43.2516 67.6068 41.3998C69.0866 39.5516 70.5761 37.7028 71.8436 35.453C73.169 36.6016 74.2953 38.0228 75.0839 39.6437C75.8999 41.33 76.364 43.213 76.3937 45.116C76.4115 47.0184 76.0477 48.9289 75.2903 50.6745C75.2784 50.702 75.2636 50.7265 75.2517 50.7525L75.4062 50.7807C75.4544 50.7889 75.5019 50.797 75.5487 50.8059C76.2704 48.9979 76.6632 47.0644 76.6907 45.116C76.7546 41.2446 75.4492 37.2833 72.8066 34.181" fill="#666666"/>
</g>
<mask id="mask1_209_1578" style="mask-type:luminance" maskUnits="userSpaceOnUse" x="11" y="54" width="102" height="30">
<path fill-rule="evenodd" clip-rule="evenodd" d="M11.1377 54.0208H112.531V83.9651H11.1377V54.0208Z" fill="white"/>
</mask>
<g mask="url(#mask1_209_1578)">
<path opacity="0.4" fill-rule="evenodd" clip-rule="evenodd" d="M110.351 70.4734C107.585 67.3897 104.334 64.8318 100.845 62.7067C97.0073 60.3366 92.8812 58.4766 88.6444 56.9804C85.0068 55.7322 81.286 54.7388 77.5118 54.0208C74.3665 59.7285 68.2935 63.597 61.3161 63.597C54.3817 63.597 48.3429 59.776 45.1812 54.1262C41.9877 54.7959 38.8327 55.6617 35.7439 56.7332C31.5034 58.2226 27.3735 60.0745 23.4835 62.3733C19.7464 64.5429 16.2573 67.1544 13.1031 70.1853C11.6545 72.1537 10.1731 75.7534 11.9522 78.8571C14.8592 84.3057 17.8003 83.8699 23.4983 82.9053C24.6544 82.7093 40.4529 74.5105 49.4314 73.4412C53.5241 72.9541 67.8807 72.0371 71.0713 72.6178C75.764 73.4694 89.2866 77.6498 91.7703 78.7591C99.5066 82.2155 96.5507 81.2555 98.3141 82.0826C99.1814 82.4895 99.8133 83.2484 100.677 83.5001C104.546 84.6265 109.122 83.7614 111.032 80.305C111.052 80.2679 111.699 79.0673 111.721 79.0301C113.325 76.1276 112.38 73.3833 110.351 70.4734" fill="#F9D023"/>
</g>
<path fill-rule="evenodd" clip-rule="evenodd" d="M101.521 62.2831C98.1393 60.0964 99.2627 61.77 96.257 59.6123C91.3193 56.0682 85.8737 53.5957 78.375 52.2332C78.1181 52.8465 77.83 53.4427 77.5122 54.0204C81.2864 54.7384 85.0072 55.7326 88.644 56.9801C92.8808 58.4762 97.0077 60.3362 100.845 62.7063C104.335 64.8321 107.586 67.3894 110.351 70.473C110.14 70.1716 109.922 69.8686 109.69 69.5627C107.819 67.1013 103.907 63.8253 101.521 62.2831" fill="#FFCE00"/>
<path fill-rule="evenodd" clip-rule="evenodd" d="M101.654 61.502C97.8972 58.7747 93.7725 56.5561 89.4608 54.8208C85.9739 53.3863 82.3534 52.3037 78.6794 51.4609C78.5844 51.7216 78.4812 51.9785 78.375 52.2332C78.1188 52.8465 77.83 53.4427 77.5122 54.0204C81.2864 54.7384 85.0072 55.7319 88.644 56.9801C92.8815 58.4762 97.0077 60.3362 100.845 62.7063C104.335 64.8314 107.586 67.3894 110.351 70.473C110.637 70.7916 110.922 71.1086 111.196 71.439C108.788 67.5201 105.381 64.2463 101.654 61.502" fill="#F9D023"/>
<path fill-rule="evenodd" clip-rule="evenodd" d="M35.7435 56.7329C38.8324 55.6614 41.9873 54.7957 45.1816 54.1259C44.8683 53.5668 44.5817 52.9913 44.3278 52.3981C33.2554 54.3888 25.9698 58.3753 20.4024 63.5967C19.9874 63.9858 19.8448 63.7095 19.4468 64.0986C17.6165 65.8829 16.4775 66.7605 13.8958 69.2554C13.647 69.4952 13.376 69.8145 13.1035 70.185C16.2577 67.1541 19.7461 64.5426 23.4831 62.373C27.3739 60.0742 31.503 58.2224 35.7435 56.7329" fill="#FFCE00"/>
<path fill-rule="evenodd" clip-rule="evenodd" d="M44.3274 52.3987C44.219 52.1447 44.1165 51.8878 44.0192 51.6287C40.9222 52.3957 37.8757 53.3535 34.9271 54.5638C30.6131 56.2939 26.4929 58.4984 22.6927 61.147C18.9133 63.8156 15.4391 66.9482 12.6636 70.6036C12.8084 70.4618 12.9576 70.3259 13.1031 70.1856C16.2573 67.1547 19.7464 64.5425 23.4835 62.3736C27.3735 60.0748 31.5034 58.2229 35.7432 56.7335C38.8328 55.662 41.9877 54.7962 45.1813 54.1265C44.8687 53.5674 44.5821 52.9919 44.3274 52.3987" fill="#F9D023"/>
<path fill-rule="evenodd" clip-rule="evenodd" d="M74.963 51.7106C75.0194 51.7181 75.0744 51.7262 75.1315 51.7329C75.2763 51.4263 75.4226 51.1211 75.5481 50.8063C75.5013 50.7981 75.453 50.7892 75.4055 50.781C75.2726 51.0988 75.1174 51.4047 74.963 51.7106" fill="#666666"/>
<path fill-rule="evenodd" clip-rule="evenodd" d="M73.9624 53.4192L74.1948 53.4541C74.5453 52.9009 74.8519 52.3233 75.1319 51.733C75.0754 51.7263 75.0205 51.7181 74.9641 51.7107C74.6648 52.3032 74.3359 52.8764 73.9624 53.4192" fill="#666666"/>
<path fill-rule="evenodd" clip-rule="evenodd" d="M74.7871 51.6862C74.8465 51.6943 74.9037 51.7018 74.9631 51.7099C75.1175 51.404 75.2727 51.0981 75.4056 50.7803L75.2512 50.7521C75.1116 51.0714 74.9512 51.3802 74.7871 51.6862" fill="#666666"/>
<path fill-rule="evenodd" clip-rule="evenodd" d="M73.709 53.3808C73.7936 53.3934 73.8783 53.4061 73.9629 53.4187C74.3364 52.8752 74.6653 52.3027 74.9638 51.7102C74.9044 51.702 74.8473 51.6946 74.7879 51.6864C74.4693 52.2789 74.1099 52.844 73.709 53.3808" fill="#666666"/>
<path fill-rule="evenodd" clip-rule="evenodd" d="M67.9202 46.2803C67.3901 44.3921 66.5726 42.6583 65.7001 40.9706C64.8091 39.294 63.8342 37.6693 62.8006 36.1108L61.8702 34.7045L60.9391 36.1108C59.9055 37.6693 58.9373 39.2977 58.0448 40.9735C57.1753 42.6627 56.3563 44.395 55.8254 46.2818C55.6984 46.7562 55.5886 47.2403 55.5485 47.7534C55.5314 48.0066 55.5299 48.2895 55.57 48.5286C55.5982 48.7759 55.6257 49.0216 55.6881 49.263C55.8915 50.2305 56.34 51.123 56.9384 51.8714C57.7485 52.9028 58.8749 53.6215 60.0993 53.9824C60.106 53.9846 60.1127 53.9861 60.1201 53.9883C60.2813 54.0351 60.4424 54.0797 60.6057 54.1138C60.7275 54.1398 60.8522 54.1584 60.977 54.1777C61.055 54.1888 61.1314 54.2044 61.2101 54.2133C61.427 54.2371 61.6467 54.2519 61.8702 54.2519C62.093 54.2519 62.3135 54.2371 62.5303 54.2133C62.6083 54.2044 62.684 54.1888 62.762 54.1777C62.8867 54.1584 63.0122 54.1398 63.134 54.1138C63.2988 54.0789 63.4614 54.0344 63.6241 53.9876L63.6389 53.9831C64.8641 53.6223 65.9919 52.9043 66.8028 51.8722C67.4035 51.1244 67.8512 50.2319 68.0561 49.263C68.1593 48.7826 68.2314 48.2866 68.1965 47.7527C68.1571 47.2389 68.0472 46.7547 67.9202 46.2803" fill="#FFCE00"/>
<path fill-rule="evenodd" clip-rule="evenodd" d="M17.5605 87.0004C23.3239 81.7753 30.2925 77.8897 37.6255 75.1276C41.295 73.7227 45.1019 72.6854 48.96 71.8865C52.8248 71.1083 56.7683 70.7222 60.7163 70.6101C64.6679 70.5507 68.6292 70.8239 72.5252 71.4625C76.4138 72.1389 80.2548 73.0931 83.9481 74.4459C91.3472 77.0945 98.2697 81.0016 104.219 85.9928C97.5584 82.0159 90.5379 78.8156 83.2278 76.649C79.5672 75.5976 75.8599 74.7325 72.099 74.2417C68.3456 73.7123 64.5603 73.4732 60.7771 73.5779C56.9925 73.6292 53.2065 73.9878 49.4664 74.6442C45.7167 75.259 42.0242 76.2027 38.3755 77.3106C31.1003 79.599 24.062 82.7651 17.5605 87.0004" fill="#666666"/>
<path fill-rule="evenodd" clip-rule="evenodd" d="M22.3882 95.3147C28.0328 91.3193 34.3033 88.1591 40.9043 85.8855C47.5023 83.609 54.4834 82.242 61.5447 82.1685C65.0709 82.1641 68.5971 82.4455 72.0647 83.0343C75.5248 83.6617 78.9418 84.5082 82.2371 85.6873C88.847 87.9869 95.041 91.2836 100.677 95.2806C94.4173 92.3514 88.0837 89.7214 81.5429 87.8985C78.2684 87.0156 74.9701 86.2538 71.6273 85.812C68.2934 85.3309 64.9321 85.0859 61.5729 85.1371C58.2123 85.1282 54.8495 85.443 51.5148 85.9635C48.1713 86.4484 44.8693 87.2191 41.5866 88.0908C35.0317 89.8959 28.6461 92.3863 22.3882 95.3147" fill="#666666"/>
<rect y="148" width="124" height="124" rx="62" fill="white"/>
<path fill-rule="evenodd" clip-rule="evenodd" d="M63.9812 194.652L66.1056 194.424L65.3861 192.304L67.0449 190.8L65.1306 188.629L64.4572 185.823L61.6416 186.624L58.8193 185.941L58.1317 188.77L56.1299 190.883L57.8206 192.337L57.2273 194.485L59.391 194.627L60.6191 196.588L62.4903 195.151L63.9812 194.652Z" fill="#FFCE00"/>
<path fill-rule="evenodd" clip-rule="evenodd" d="M90.602 200.222L92.1264 200.671L91.0623 199.393L92.6157 198.798L90.9718 197.972L91.2205 196.161L89.7318 197.282L88.2259 196.224L88.4739 198.055L86.7988 198.836L88.3611 199.389L87.3765 200.724L88.9091 200.214L89.1927 201.852L90.0607 200.401L90.602 200.222Z" fill="#FFCE00"/>
<path fill-rule="evenodd" clip-rule="evenodd" d="M35.1188 200.222L36.6432 200.671L35.5785 199.393L37.1318 198.798L35.4879 197.972L35.7366 196.161L34.2486 197.282L32.7421 196.224L32.9901 198.055L31.3149 198.836L32.8779 199.389L31.8926 200.724L33.4252 200.214L33.7088 201.852L34.5768 200.401L35.1188 200.222Z" fill="#FFCE00"/>
<mask id="mask2_209_1578" style="mask-type:luminance" maskUnits="userSpaceOnUse" x="13" y="198" width="98" height="35">
<path fill-rule="evenodd" clip-rule="evenodd" d="M13.3652 198.776H110.57V232.884H13.3652V198.776Z" fill="white"/>
</mask>
<g mask="url(#mask2_209_1578)">
<path opacity="0.32" fill-rule="evenodd" clip-rule="evenodd" d="M58.3135 198.776L43.2568 200.552L32.1332 205.556C32.1332 205.556 24.6553 210.119 18.1709 214.955C16.5946 216.13 15.7206 218.267 14.439 219.846C13.1916 221.381 13.0268 223.533 13.9668 225.273L15.7659 228.843C17.1247 231.356 20.218 232.357 22.7871 231.106C29.5514 227.812 43.5085 222.333 61.5197 222.333C80.5778 222.333 95.3115 228.962 101.684 232.41C103.617 233.456 106.028 232.712 107.041 230.762L110.027 224.297C110.895 222.627 110.716 220.591 109.537 219.124C102.425 210.276 91.5225 205.556 91.5225 205.556L81.5074 201.178L66.0921 198.9" fill="#FF1D25"/>
</g>
<mask id="mask3_209_1578" style="mask-type:luminance" maskUnits="userSpaceOnUse" x="22" y="232" width="79" height="11">
<path fill-rule="evenodd" clip-rule="evenodd" d="M22.1938 232.115H100.982V242.99H22.1938V232.115Z" fill="white"/>
</mask>
<g mask="url(#mask3_209_1578)">
<path fill-rule="evenodd" clip-rule="evenodd" d="M22.1938 242.453C27.8934 238.649 34.4342 236.114 41.1265 234.474C44.476 233.627 47.893 233.083 51.322 232.668C54.7561 232.287 58.2125 232.128 61.6659 232.115C65.1209 232.147 68.575 232.358 72.0047 232.776C75.4285 233.234 78.8418 233.816 82.1802 234.707C88.8509 236.433 95.3643 239.062 100.982 242.991C94.7628 240.149 88.271 238.24 81.6723 236.969C78.3651 236.368 75.0468 235.855 71.701 235.572C68.3619 235.25 65.0065 235.067 61.6504 235.082C58.2942 235.039 54.9388 235.183 51.5945 235.46C48.245 235.704 44.9178 236.173 41.6047 236.733C34.9866 237.919 28.4696 239.741 22.1938 242.453" fill="#666666"/>
</g>
<path fill-rule="evenodd" clip-rule="evenodd" d="M105.484 234.92C98.9513 230.877 91.7564 228.315 84.4136 226.603C80.7308 225.782 77.0145 225.118 73.264 224.724C69.5195 224.295 65.7505 224.049 61.9786 224.058C58.2081 224.005 54.4354 224.17 50.6819 224.527C46.9233 224.845 43.1937 225.439 39.493 226.18C32.1094 227.735 24.8647 230.127 18.1694 233.892C24.1883 229.081 31.4842 225.936 38.9547 223.925C42.6984 222.891 46.5328 222.224 50.3827 221.731C54.2393 221.278 58.1234 221.084 62.0045 221.09C69.7653 221.168 77.5394 222.195 84.998 224.369C88.7277 225.445 92.366 226.842 95.838 228.562C99.2914 230.311 102.602 232.376 105.484 234.92" fill="#666666"/>
<mask id="mask4_209_1578" style="mask-type:luminance" maskUnits="userSpaceOnUse" x="13" y="177" width="98" height="45">
<path fill-rule="evenodd" clip-rule="evenodd" d="M13.9014 177.701H110.585V221.084H13.9014V177.701Z" fill="white"/>
</mask>
<g mask="url(#mask4_209_1578)">
<path fill-rule="evenodd" clip-rule="evenodd" d="M91.0946 203.563L87.861 202.839L86.6655 202.142C86.5846 202.093 86.4992 202.049 86.416 202.001L86.2549 201.54L86.2401 201.492L86.1888 201.48L85.2317 201.284L85.724 200.438L85.7752 200.349L85.6824 200.301L84.8278 199.862L85.5161 199.188L85.5985 199.107L85.5124 199.029L84.8122 198.387L85.6379 197.914L85.7248 197.864L85.6913 197.768L85.2785 196.595L86.442 196.157L86.5207 196.127L86.5289 196.042L86.6388 194.82L87.8617 194.92L87.9538 194.928L88.0013 194.849L88.6272 193.812L89.6631 194.439L89.7484 194.49L89.8338 194.438L90.8533 193.802L91.5119 194.804L91.5706 194.892L91.6738 194.877L92.8677 194.703L93.0177 195.892L93.0289 195.982L93.112 196.015L94.2392 196.461L93.7551 197.576L93.7202 197.656L93.7758 197.721L94.5815 198.662L93.6771 199.517L93.5969 199.591L93.66 199.68L94.2095 200.45L93.317 200.751L93.2011 200.791L93.2479 200.903L93.6184 201.78L92.6725 201.835L92.5678 201.841L92.5759 201.943L92.6487 202.898L91.7458 202.596L91.6664 202.569L91.6329 202.647L91.209 203.593L91.0946 203.563ZM85.9289 201.727C85.972 201.727 86.0143 201.729 86.0567 201.728L86.0923 201.819C86.0374 201.79 85.9839 201.757 85.9289 201.727V201.727ZM37.743 201.48L37.6925 201.492L37.6776 201.54L37.3754 202.403L36.6277 202.839L33.3933 203.563L32.7807 203.724L32.2989 202.647L32.2662 202.569L32.186 202.596L31.2831 202.898L31.3559 201.943L31.364 201.841L31.2593 201.835L30.3134 201.78L30.6839 200.903L30.7307 200.791L30.6148 200.751L29.7223 200.45L30.2718 199.68L30.3349 199.591L30.2555 199.517L29.3503 198.662L30.156 197.721L30.2116 197.656L30.1767 197.576L29.6926 196.461L30.8198 196.015L30.9029 195.982L30.9141 195.892L31.0641 194.703L32.258 194.877L32.3612 194.892L32.4199 194.804L33.0785 193.802L34.098 194.438L34.1834 194.49L34.2687 194.439L35.3046 193.812L35.9305 194.849L35.978 194.928L36.0701 194.92L37.293 194.82L37.4029 196.042L37.4111 196.127L37.4898 196.157L38.6533 196.595L38.2405 197.768L38.207 197.864L38.2947 197.914L39.1196 198.387L38.4194 199.029L38.3333 199.107L38.4164 199.188L39.104 199.862L38.2494 200.301L38.1566 200.349L38.2078 200.438L38.7001 201.284L37.743 201.48ZM37.8225 202.143L37.6806 202.224L37.8744 201.728C38.1046 201.731 38.3341 201.728 38.5635 201.725C38.3133 201.859 38.0645 201.996 37.8225 202.143V202.143ZM109.045 217.481C108.474 216.381 107.936 215.257 107.331 214.182L107.228 214.001L106.75 213.706C105.699 213.063 104.669 212.373 103.601 211.766L100.875 210.19L98.4189 207.676C97.9875 207.241 97.5702 206.791 97.1262 206.369L95.7956 205.104L95.3441 204.675L94.6484 204.493L91.4422 203.654L91.8172 203.089L92.5938 203.512L93.1648 203.822L93.2554 203.001C93.2688 202.884 93.2732 202.767 93.2822 202.65L93.8197 202.696L94.8897 202.789L94.5326 201.565L94.5318 201.563L94.7338 201.52L96.0235 201.244L95.2669 199.898C95.2647 199.895 95.2617 199.89 95.2595 199.887L95.6263 199.596L96.4735 198.92L95.7265 197.855C95.6396 197.731 95.5453 197.613 95.4562 197.492L95.7258 196.952L96.3502 195.702L94.958 195.069C94.8221 195.007 94.6848 194.945 94.5481 194.883L94.4917 194.343L94.335 192.846L92.7951 193.039L92.4134 193.087C92.3377 192.968 92.2657 192.848 92.1869 192.733L91.3175 191.471L90.0864 192.275L89.698 192.528L89.3387 192.32L88.0252 191.562L87.2945 192.836C87.2062 192.989 87.123 193.145 87.0346 193.299L86.6166 193.287L85.1776 193.246L85.1301 194.55L85.1071 195.186C84.966 195.253 84.8242 195.32 84.6824 195.386L83.5248 195.932L83.9732 196.927L84.2079 197.448L84.1203 197.511L82.9419 198.37L83.9539 199.1L84.2109 199.286C84.1886 199.316 84.1648 199.345 84.1425 199.374L83.4847 200.248L84.3237 200.534L84.914 200.735C84.868 200.86 84.8212 200.985 84.7752 201.11L81.8103 199.524L81.1502 199.17L80.7143 199.192L77.0337 199.374C75.8078 199.416 74.5775 199.568 73.3493 199.66L73.7755 199.74C72.5556 199.475 71.303 199.309 70.0682 199.089C68.8824 198.929 67.6973 198.766 66.49 198.671L67.0484 197.188L68.5282 197.6L69.6175 197.903L69.4511 196.478C69.4266 196.274 69.3947 196.072 69.3643 195.871L70.288 195.741L72.1368 195.481L71.055 193.547L71.0535 193.545L71.3795 193.393L73.4555 192.425L71.6505 190.438C71.6453 190.433 71.6401 190.428 71.6349 190.422L72.1413 189.786L73.3144 188.313L71.6349 186.798C71.4389 186.622 71.2339 186.461 71.0349 186.289L71.2814 185.269L71.8532 182.909L69.2484 182.379C68.993 182.326 68.7376 182.275 68.4822 182.222L68.177 181.331L67.3283 178.857L64.7941 179.782L64.1726 180.008C63.9981 179.837 63.8244 179.664 63.6439 179.5L61.6815 177.7L59.9076 179.54L59.3492 180.121L58.6594 179.91L56.1401 179.137L55.3976 181.578C55.307 181.874 55.2171 182.17 55.1273 182.467L54.4249 182.606L51.9716 183.097L52.3985 185.325L52.6064 186.41C52.3941 186.579 52.1802 186.747 51.9664 186.915L50.217 188.29L51.3642 189.802L51.9634 190.59C51.9218 190.639 51.8818 190.686 51.8409 190.734L50.1784 192.647L52.1765 193.49L52.6852 193.705C52.6584 193.764 52.6287 193.822 52.6027 193.882L51.8298 195.617L53.3616 195.775L54.4397 195.885C54.4078 196.147 54.3721 196.407 54.338 196.668L54.2073 197.667L54.9899 197.52C55.5817 197.411 56.1727 197.266 56.7638 197.125L57.8256 198.688C56.6777 198.784 55.549 198.936 54.4197 199.089C53.1849 199.309 51.9322 199.475 50.7115 199.74L51.1377 199.66C49.9096 199.568 48.6793 199.416 47.4541 199.374L43.7735 199.192L43.3369 199.17L42.6768 199.524L39.4342 201.259C39.3726 201.292 39.3102 201.324 39.2486 201.358L39.1743 201.161C39.1224 201.019 39.0689 200.878 39.0169 200.735L39.6072 200.534L40.4463 200.248L39.7892 199.374C39.7661 199.345 39.7424 199.316 39.7201 199.286L39.9778 199.1L40.9898 198.37L39.8107 197.511L39.7231 197.448L39.9577 196.927L40.4062 195.932L39.2486 195.386C39.1068 195.32 38.9657 195.253 38.8239 195.186L38.8009 194.55L38.7541 193.246L37.3143 193.287L36.8963 193.299C36.8087 193.145 36.7248 192.989 36.6364 192.836L35.9058 191.562L34.5923 192.32L34.2337 192.528L33.8446 192.275L32.6135 191.471L31.744 192.733C31.6653 192.848 31.5933 192.968 31.5183 193.087L31.1366 193.039L29.5959 192.846L29.4392 194.343L29.3828 194.883C29.2462 194.945 29.1096 195.007 28.9729 195.069L27.5807 195.702L28.2052 196.952L28.4747 197.492C28.3856 197.613 28.2913 197.731 28.2044 197.855L27.4575 198.92L28.3047 199.596L28.6715 199.887C28.6692 199.89 28.667 199.895 28.6648 199.898L27.9074 201.244L29.1972 201.52L29.3991 201.563V201.565L29.0412 202.789L30.1112 202.696L30.6488 202.65C30.6577 202.767 30.6629 202.884 30.6755 203.001L30.7661 203.822L31.3371 203.512L32.1138 203.089L32.5719 203.778L29.8387 204.493L29.143 204.675L28.6915 205.104L27.3609 206.369C26.9169 206.791 26.4996 207.241 26.0682 207.676L23.612 210.19L20.8862 211.766C19.8185 212.373 18.7886 213.063 17.7372 213.706L17.259 214.001L17.1566 214.182C16.5514 215.257 16.0131 216.381 15.4421 217.481C14.9082 218.609 14.3692 219.732 13.9014 220.907L14.1412 221.084L18.5146 215.252L25.1423 212.216L25.1779 212.2L25.2076 212.172L30.5879 207.281C32.9469 206.725 35.3051 206.157 37.6581 205.571L37.7027 205.56L37.7391 205.537L43.9428 201.729L51.209 201.406L51.2432 201.404L51.2721 201.393L58.0506 199.018L58.3914 198.902L57.0237 196.729L56.9791 196.651L56.8885 196.653L55.1911 196.693L55.6946 195.069L55.7473 194.897L55.572 194.853L53.9526 194.441L54.8563 193.03L54.9647 192.862L54.788 192.762L53.3534 191.949L54.5674 190.826L54.6951 190.708L54.6008 190.558L53.4447 188.73L55.2461 187.536L55.3671 187.456L55.3471 187.308L55.0582 185.195L57.1699 184.891L57.3274 184.867L57.3778 184.713L58.0342 182.714L60.0338 183.374L60.1979 183.427L60.3219 183.304L61.8018 181.832L63.3076 183.272L63.4412 183.399L63.6098 183.333L65.5641 182.573L66.2813 184.529L66.3355 184.677L66.4885 184.701L68.572 185.016L68.1852 187.094L68.1577 187.243L68.2772 187.332L70.0088 188.612L68.8074 190.413L68.7027 190.571L68.843 190.695L70.0741 191.786L68.6797 192.644L68.4978 192.755L68.6218 192.926L69.5907 194.268L68.0084 194.729L67.8347 194.78L67.8874 194.951L68.3819 196.541L66.7358 196.38L66.5895 196.367L66.5642 196.51L66.0913 198.901L66.1974 198.919L66.193 198.933L73.2149 201.393L73.2439 201.404L73.2781 201.406L80.5443 201.729L86.748 205.537L86.7844 205.56L86.8297 205.571C89.1827 206.157 91.5402 206.725 93.8999 207.281L99.2795 212.172L99.3099 212.2L99.3448 212.216L105.972 215.252L110.346 221.084L110.586 220.907C110.118 219.732 109.58 218.609 109.045 217.481V217.481Z" fill="#EF5E69"/>
</g>
<rect x="148" y="-0.00012207" width="124" height="124" rx="62" fill="white"/>
<path opacity="0.27" fill-rule="evenodd" clip-rule="evenodd" d="M162.096 68.4934C169.214 59.728 180.427 55.1385 180.427 55.1385C176.736 54.3834 174.363 50.0078 177.182 45.8831C177.348 45.6403 177.564 45.425 177.806 45.2586C182.34 42.1601 187.177 45.3329 187.177 49.635C187.177 52.2294 185.418 54.4131 183.028 55.0591L188.604 52.4402C200.21 47.9139 208.303 48.4344 208.303 48.4344C203.101 47.3696 199.713 41.3203 203.348 35.4938C203.755 34.8411 204.317 34.288 204.971 33.8833C211.379 29.9138 218.045 34.4246 218.045 40.4924C218.045 44.2362 215.507 47.3882 212.056 48.3193C212.056 48.3193 223.337 47.9139 231.651 52.4402L237.216 55.0591C233.719 54.1146 231.574 49.88 234.307 45.8823C234.473 45.6403 234.688 45.425 234.931 45.2586C239.463 42.1601 244.301 45.3329 244.301 49.635C244.301 52.3496 242.376 54.6151 239.816 55.1385C239.816 55.1385 251.139 59.7726 258.25 68.6219C259.43 70.0883 259.609 72.1243 258.741 73.7935L255.335 80.3447C254.321 82.2953 251.911 83.0385 249.977 81.9931C243.605 78.5456 228.872 71.9149 209.814 71.9149C191.802 71.9149 177.845 77.3947 171.081 80.6892C168.512 81.9396 165.419 80.9402 164.06 78.426L161.625 73.9205C160.685 72.18 160.849 70.0289 162.096 68.4934" fill="#EF7900"/>
<path fill-rule="evenodd" clip-rule="evenodd" d="M185.813 44.4022C184.602 43.2676 182.909 42.6535 181.224 42.6535C179.526 42.6275 177.821 43.324 176.57 44.4913C175.315 45.6578 174.503 47.3106 174.376 49.0273C174.219 50.7343 174.76 52.5 175.815 53.8321C176.247 54.3786 176.763 54.8508 177.332 55.2421C176.178 55.8658 175.059 56.5222 173.946 57.2187C172.063 58.4008 170.272 59.7232 168.56 61.1355C166.846 62.5448 165.255 64.1048 163.795 65.7658C162.348 67.4402 161.057 69.2475 160.022 71.1795C161.372 69.4531 162.847 67.8552 164.457 66.4118C166.043 64.9438 167.762 63.6348 169.525 62.4052C171.286 61.1681 173.143 60.0774 175.019 59.0379C176.89 58.0147 178.857 57.0546 180.78 56.2987C181.141 56.1547 181.435 55.8421 181.535 55.4374C181.7 54.7684 181.292 54.0927 180.624 53.9271L180.557 53.9108C178.471 53.3948 177.082 51.2845 177.315 49.2783C177.48 47.2675 179.229 45.5159 181.308 45.4001C182.343 45.311 183.39 45.6318 184.266 46.251C185.155 46.8695 185.777 47.8504 186.062 48.9471C186.342 50.0549 186.216 51.2949 185.677 52.4094C185.123 53.5128 184.163 54.4811 182.906 55.0595C184.281 54.9236 185.657 54.1855 186.6 53.0146C187.554 51.8488 188.047 50.2584 187.914 48.6738C187.814 47.0782 187.024 45.5219 185.813 44.4022" fill="#EF7900"/>
<path fill-rule="evenodd" clip-rule="evenodd" d="M256.205 65.766C254.744 64.105 253.154 62.5449 251.44 61.1349C249.728 59.7226 247.936 58.401 246.054 57.2181C244.942 56.5224 243.821 55.866 242.668 55.2423C243.237 54.8502 243.753 54.3788 244.186 53.8315C245.239 52.5002 245.781 50.7345 245.625 49.0274C245.497 47.31 244.685 45.6579 243.43 44.4914C242.179 43.3234 240.473 42.627 238.776 42.6537C237.092 42.653 235.398 43.2678 234.187 44.4023C232.976 45.5213 232.186 47.0783 232.087 48.674C231.953 50.2585 232.446 51.8483 233.4 53.014C234.344 54.185 235.72 54.923 237.094 55.0589C235.836 54.4805 234.877 53.5122 234.322 52.4089C233.785 51.2951 233.658 50.0543 233.938 48.9473C234.223 47.8498 234.844 46.8697 235.735 46.2512C236.61 45.6312 237.658 45.3112 238.693 45.3995C240.771 45.5161 242.52 47.2669 242.685 49.2777C242.918 51.2839 241.529 53.3942 239.443 53.911L239.369 53.9288C238.993 54.0246 238.668 54.2934 238.515 54.6817C238.264 55.3225 238.579 56.0464 239.22 56.2989C241.144 57.0548 243.11 58.0141 244.982 59.0373C246.857 60.0768 248.714 61.1683 250.474 62.4046C252.238 63.6342 253.957 64.944 255.543 66.4112C257.152 67.8554 258.628 69.4533 259.978 71.1796C258.943 69.2469 257.651 67.4396 256.205 65.766" fill="#EF7900"/>
<path fill-rule="evenodd" clip-rule="evenodd" d="M222.117 48.5429C220.457 48.1189 218.764 47.8368 217.065 47.6044C216.705 47.5561 216.347 47.5138 215.988 47.4737C216.625 46.9413 217.194 46.3235 217.665 45.6308C218.945 43.7485 219.509 41.3754 219.198 39.0996C218.92 36.8097 217.712 34.6497 215.943 33.164C214.179 31.6633 211.839 30.8473 209.522 30.9134C207.198 30.9721 204.914 31.9507 203.254 33.5582C201.583 35.1517 200.504 37.3755 200.36 39.6788C200.184 41.9687 200.903 44.3091 202.301 46.0993C202.751 46.6866 203.28 47.2049 203.857 47.6601C203.582 47.6994 203.308 47.7366 203.032 47.7804C201.335 48.0573 199.657 48.4033 198.008 48.8511C196.366 49.3218 194.733 49.8037 193.149 50.4259C192.349 50.7103 191.571 51.0549 190.788 51.3749C190.012 51.7179 189.249 52.0877 188.482 52.4411C190.11 51.9763 191.735 51.5353 193.371 51.1566C195.006 50.7772 196.647 50.4467 198.293 50.1809C199.944 49.9381 201.59 49.7102 203.242 49.5988C204.066 49.5386 204.892 49.503 205.711 49.4919C206.519 49.4733 207.373 49.477 208.111 49.5357C208.642 49.578 209.141 49.2283 209.268 48.6937C209.41 48.1019 209.046 47.5071 208.454 47.366L208.403 47.3542C206.747 46.9584 205.303 45.9196 204.343 44.5727C203.378 43.2258 202.935 41.541 203.126 39.9142C203.313 38.2992 204.053 36.7614 205.243 35.6603C206.421 34.5525 208.001 33.899 209.611 33.882C211.22 33.8189 212.835 34.3527 214.084 35.3841C215.346 36.4065 216.175 37.9079 216.453 39.505C216.738 41.1141 216.408 42.8256 215.534 44.2334C214.652 45.633 213.275 46.7549 211.647 47.2576L211.593 47.274C211.125 47.418 210.796 47.8665 210.822 48.3788C210.852 48.984 211.368 49.4503 211.974 49.4198C213.568 49.3389 215.256 49.3597 216.904 49.4228C218.56 49.4911 220.213 49.6589 221.861 49.8743C223.511 50.0888 225.143 50.42 226.764 50.8247C228.381 51.2397 229.973 51.7743 231.528 52.4411C230.115 51.5093 228.586 50.7363 227.002 50.1022C225.421 49.451 223.776 48.9624 222.117 48.5429" fill="#EF7900"/>
<path fill-rule="evenodd" clip-rule="evenodd" d="M253.779 84.5026C247.247 80.4596 240.052 77.8979 232.709 76.185C229.026 75.3652 225.31 74.7007 221.559 74.3064C217.815 73.878 214.046 73.6314 210.274 73.6411C206.503 73.5869 202.731 73.7532 198.977 74.1096C195.219 74.4274 191.489 75.0222 187.788 75.7625C180.405 77.3173 173.16 79.7097 166.465 83.475C172.484 78.6635 179.78 75.5189 187.25 73.5074C190.993 72.4739 194.828 71.8071 198.678 71.3133C202.535 70.8604 206.419 70.6666 210.3 70.6733C218.061 70.7505 225.835 71.7774 233.293 73.9515C237.023 75.0281 240.661 76.4248 244.133 78.1452C247.587 79.8938 250.897 81.9587 253.779 84.5026" fill="#666666"/>
<path fill-rule="evenodd" clip-rule="evenodd" d="M170.488 92.037C176.188 88.2324 182.729 85.6982 189.421 84.058C192.77 83.2107 196.187 82.6657 199.616 82.2522C203.051 81.8698 206.507 81.7116 209.96 81.6982C213.415 81.7309 216.869 81.9418 220.299 82.3598C223.723 82.8172 227.136 83.4001 230.475 84.2911C237.145 86.0167 243.659 88.646 249.277 92.5739C243.057 89.7323 236.565 87.8232 229.967 86.5528C226.66 85.9514 223.341 85.4383 219.995 85.1554C216.656 84.8331 213.301 84.6505 209.945 84.6661C206.589 84.623 203.233 84.7671 199.889 85.0433C196.539 85.2876 193.212 85.7568 189.899 86.3167C183.281 87.5017 176.764 89.3239 170.488 92.037" fill="#666666"/>
<rect x="296" width="124" height="124" rx="62" fill="white"/>
<path opacity="0.32" fill-rule="evenodd" clip-rule="evenodd" d="M407.959 71.7743C409.729 68.5711 408.4 65.5602 405.928 62.3065C404.058 59.8458 401.284 60.0953 399.784 58.1172C397.351 54.908 395.501 54.5138 392.495 52.3568C384.566 46.6661 374.717 40.5872 357.77 40.5872C335.919 40.5872 324.591 47.9782 316.471 55.5941C316.056 55.9825 315.383 55.8362 314.984 56.2253C313.154 58.0103 313.502 60.4843 310.134 61.9998C308.145 62.8938 306.076 67.9132 308.19 71.6013C311.097 77.0491 315.686 77.208 321.383 76.2442C322.539 76.0482 323.772 75.6146 325.004 75.0725C327.946 73.7805 329.753 68.5629 333.153 67.3363C337.197 65.878 341.674 68.5852 346.075 67.6659C350.109 66.8224 354.106 62.974 358.186 62.974C361.451 62.974 364.695 66.1809 367.885 66.7601C372.579 67.6132 377.037 65.4443 381.302 67.0073C384.085 68.0275 386.062 72.6467 388.545 73.756C396.28 77.2132 393.201 74.9055 394.964 75.7319C395.832 76.138 397.887 75.3977 398.751 75.6495C402.62 76.7758 405.36 76.5048 407.27 73.0492C407.29 73.012 407.938 71.8114 407.959 71.7743" fill="#3F719E"/>
<path fill-rule="evenodd" clip-rule="evenodd" d="M368.303 75.7783C364.836 75.1895 361.31 74.9081 357.783 74.9125C350.721 74.9853 343.741 76.353 337.143 78.6296C330.542 80.9031 324.271 84.0633 318.627 88.0588C324.884 85.1303 331.271 82.6399 337.825 80.8348C341.108 79.9631 344.409 79.1924 347.753 78.7075C351.087 78.187 354.451 77.8722 357.812 77.8811C361.171 77.8299 364.532 78.0749 367.866 78.556C371.209 78.9978 374.506 79.7597 377.782 80.6425C384.322 82.4654 390.656 85.0954 396.915 88.0246C391.279 84.0276 385.086 80.7309 378.475 78.4313C375.181 77.2522 371.764 76.4057 368.303 75.7783" fill="#666666"/>
<path fill-rule="evenodd" clip-rule="evenodd" d="M399.145 75.3444C398.069 75.0266 396.934 75.1922 395.907 75.2664C394.868 75.3503 393.874 75.3562 392.912 75.1261C391.953 74.8966 391.031 74.5231 390.155 74.0301C386.95 72.1798 385.966 67.0831 381.217 64.9893C380.943 64.8511 380.603 64.7813 380.285 64.693C379.962 64.6091 379.647 64.5972 379.325 64.5519C379.015 64.5393 378.705 64.5378 378.398 64.543C378.103 64.5682 377.8 64.5853 377.51 64.6217C376.354 64.7784 375.294 65.068 374.269 65.339C372.246 65.8862 370.268 66.4201 368.612 66.1706C367.082 65.9664 365.407 64.719 363.667 63.5258C362.783 62.9221 361.856 62.3013 360.796 61.7749C359.743 61.2544 358.513 60.8163 357.154 60.7888C356.822 60.7643 356.464 60.8297 356.122 60.8564C355.786 60.9121 355.465 60.9997 355.143 61.0814C354.846 61.1905 354.536 61.2923 354.252 61.4163C353.98 61.5484 353.692 61.6717 353.435 61.8143C352.39 62.3786 351.492 63.0246 350.628 63.6438C348.927 64.8808 347.283 66.0689 345.672 66.4424C344.93 66.6302 344.026 66.5626 343.07 66.4008C342.113 66.2374 341.114 65.9768 340.075 65.7251C339.034 65.4778 337.95 65.2239 336.787 65.1244C335.633 65.0293 334.365 65.0828 333.153 65.5357C331.888 65.9998 330.96 66.8782 330.21 67.7232C329.457 68.5867 328.845 69.4844 328.261 70.3651C327.098 72.107 325.978 73.8489 324.385 74.8454C323.62 75.328 322.646 75.5745 321.645 75.7357C320.639 75.8975 319.589 75.9651 318.536 76.075C317.483 76.1812 316.414 76.3007 315.37 76.5628C314.332 76.8324 313.31 77.2541 312.495 77.9328C313.399 77.3759 314.427 77.119 315.452 77.0009C316.48 76.8739 317.521 76.8739 318.57 76.8933C319.62 76.9148 320.68 76.9385 321.769 76.8747C322.85 76.8012 323.992 76.6542 325.085 76.1158C326.144 75.5827 327.009 74.8023 327.767 73.9974C328.526 73.1859 329.182 72.3275 329.831 71.4996C330.482 70.6762 331.107 69.8616 331.779 69.1718C332.453 68.4887 333.167 67.9289 333.915 67.715C335.499 67.2264 337.445 67.6972 339.424 68.2385C340.424 68.514 341.455 68.8243 342.569 69.0538C343.673 69.2728 344.911 69.4518 346.239 69.1889C347.511 68.9446 348.608 68.4004 349.589 67.8249C350.572 67.2443 351.456 66.6057 352.31 66.0058C353.989 64.8229 355.699 63.6728 357.103 63.7574C358.627 63.7634 360.339 64.7791 362.038 65.9278C362.901 66.5032 363.783 67.1255 364.775 67.6965C365.753 68.2556 366.913 68.8184 368.249 68.9587C369.523 69.1043 370.725 68.9439 371.833 68.7085C372.944 68.4702 373.982 68.1457 374.985 67.8413C375.985 67.5361 376.956 67.251 377.883 67.0854C378.821 66.9101 379.653 66.8871 380.401 67.1589C382.033 67.6942 383.413 69.1949 384.717 70.7801C385.379 71.5791 386.032 72.4203 386.776 73.2379C387.148 73.647 387.555 74.0435 387.995 74.4199C388.239 74.5937 388.459 74.783 388.724 74.9375C388.99 75.0867 389.263 75.2553 389.516 75.3414C390.526 75.7854 391.61 76.1099 392.722 76.2606C393.839 76.4121 394.977 76.303 396.018 76.0817C397.061 75.8797 398.056 75.6161 399.054 75.7847C400.057 75.9183 400.998 76.4247 401.873 77.0121C401.106 76.2933 400.215 75.6503 399.145 75.3444" fill="#666666"/>
<path fill-rule="evenodd" clip-rule="evenodd" d="M307.865 63.0322C308.717 62.009 310.047 61.6267 311.04 61.0542C311.559 60.7757 311.962 60.4884 312.224 60.08C312.504 59.6709 312.706 59.1489 312.905 58.589C313.11 58.0247 313.296 57.4151 313.641 56.7669C313.946 56.1246 314.627 55.4103 315.31 55.065C315.994 54.6812 316.653 54.4889 317.242 54.2906C317.828 54.1027 318.355 53.9179 318.7 53.704C318.869 53.5889 318.972 53.5102 319.088 53.384C319.205 53.2481 319.328 53.0937 319.452 52.8895C319.705 52.4878 319.948 51.9717 320.264 51.3837C320.585 50.806 320.965 50.1125 321.719 49.4561C322.518 48.7849 323.418 48.5101 324.14 48.3423C324.867 48.1827 325.508 48.0988 326.013 48.0045C326.535 47.9087 326.86 47.7839 326.971 47.6659C327.148 47.5404 327.434 47.2115 327.755 46.7786C328.083 46.3427 328.445 45.797 328.999 45.1851C329.289 44.88 329.61 44.5577 330.063 44.2585C330.517 43.957 331.054 43.7194 331.532 43.5962C332.501 43.34 333.308 43.3467 333.961 43.34C334.62 43.34 335.154 43.3556 335.487 43.3036C335.655 43.2791 335.726 43.2457 335.774 43.2242C335.828 43.1982 335.937 43.1269 336.069 43.0311C336.35 42.8173 336.725 42.4534 337.203 41.996C337.688 41.5528 338.262 40.9773 339.25 40.485C339.734 40.2355 340.367 40.0558 340.892 39.9979C341.437 39.9259 341.916 39.9437 342.343 39.9794C343.199 40.0581 343.85 40.214 344.381 40.2994C344.896 40.3915 345.276 40.3907 345.311 40.3714C345.363 40.3655 345.65 40.2623 346.071 39.9957C346.489 39.7447 347.017 39.3646 347.729 38.9688C348.092 38.7698 348.523 38.5656 349.032 38.3993C349.55 38.2322 350.204 38.1342 350.781 38.1483C351.936 38.1907 352.77 38.5025 353.427 38.7423C354.077 38.9889 354.607 39.2153 354.942 39.3007C355.117 39.3534 355.222 39.3609 355.257 39.3601C355.279 39.3646 355.322 39.3571 355.449 39.3289C355.691 39.2792 356.152 39.0898 356.722 38.8522C357.317 38.6221 358.018 38.3028 359.067 38.1298C359.575 38.0503 360.23 38.0206 360.818 38.1312C361.399 38.23 361.918 38.406 362.329 38.5938C363.177 38.9747 363.754 39.3802 364.24 39.6742C364.714 39.9794 365.085 40.1576 365.203 40.191C365.233 40.1969 365.26 40.2066 365.366 40.2118C365.487 40.2058 365.654 40.1954 365.873 40.1561C366.322 40.0833 366.894 39.9244 367.659 39.7833C368.396 39.6579 369.438 39.5042 370.653 39.8487C371.82 40.1917 372.546 40.7961 373.118 41.255C373.677 41.728 374.105 42.1416 374.43 42.3992C374.589 42.5255 374.726 42.6235 374.796 42.6584C374.87 42.6977 374.862 42.7126 374.983 42.7363C375.188 42.7928 375.654 42.795 376.235 42.7586C376.82 42.7296 377.538 42.6569 378.463 42.7393C378.934 42.7913 379.457 42.8893 380.009 43.1098C380.536 43.3318 380.99 43.6184 381.357 43.9102C382.075 44.4968 382.547 45.0678 382.928 45.5319C383.309 46.0019 383.627 46.3635 383.822 46.5269C383.923 46.6182 383.94 46.6241 384.055 46.6858C384.154 46.7385 384.337 46.7815 384.539 46.8239C384.968 46.9033 385.54 46.936 386.232 47.0006C386.916 47.0815 387.764 47.1484 388.744 47.6406C389.714 48.1381 390.307 48.8576 390.742 49.4405C391.182 50.0397 391.476 50.5855 391.761 51.0124C391.899 51.2158 392.032 51.4059 392.142 51.5322C392.264 51.6628 392.311 51.7274 392.445 51.8151C392.704 51.9858 393.146 52.1403 393.697 52.2621C394.243 52.392 394.888 52.4967 395.622 52.7209C395.99 52.8382 396.391 52.9971 396.794 53.2385C397.223 53.4946 397.525 53.7961 397.805 54.1131C398.334 54.751 398.651 55.397 398.918 55.9724C399.186 56.5508 399.408 57.0817 399.653 57.473C400.007 58.1628 401.038 58.6202 402.196 59.0033C402.775 59.2172 403.415 59.4028 404.057 59.8454C404.405 60.0889 404.609 60.3458 404.83 60.5827C405.045 60.8411 405.26 61.1047 405.429 61.4165C405.607 61.718 405.729 62.0729 405.8 62.41C405.871 62.7516 405.882 63.0679 405.92 63.3478C405.977 63.9047 406.239 64.417 406.605 64.8982L406.39 65.1024C405.96 64.6546 405.582 64.0948 405.444 63.4659C405.311 62.8466 405.213 62.2793 404.861 61.7989C404.534 61.3267 404.08 60.8708 403.618 60.5552C403.126 60.2552 402.528 60.1112 401.942 59.9515C401.352 59.7964 400.749 59.6375 400.169 59.388C399.601 59.1377 399.026 58.7761 398.647 58.2519C397.883 57.2384 397.485 56.0467 396.671 55.1898C395.884 54.2869 394.597 54.2297 393.398 54.0233C392.791 53.9231 392.165 53.7909 391.584 53.5006C390.991 53.208 390.543 52.7113 390.169 52.2197C389.424 51.2433 388.828 50.111 387.795 49.6009C386.752 49.1242 385.482 49.2979 384.244 49.139C383.623 49.0633 382.965 48.8873 382.43 48.496C381.9 48.1181 381.482 47.6444 381.072 47.1907C380.272 46.2855 379.427 45.3552 378.242 45.3255C377.079 45.2312 375.856 45.5816 374.56 45.3968C373.903 45.3121 373.292 44.9765 372.796 44.6015C372.288 44.2243 371.837 43.8048 371.369 43.4313C370.902 43.0608 370.413 42.7215 369.879 42.5737C369.351 42.4208 368.765 42.4764 368.182 42.5878C367.597 42.697 367.006 42.867 366.387 42.9814C365.773 43.0964 365.103 43.1551 364.446 42.9814C363.163 42.6042 362.23 41.7339 361.158 41.2795C360.626 41.0427 360.086 40.9394 359.531 41.0419C358.974 41.1325 358.419 41.3627 357.857 41.5943C357.292 41.8253 356.715 42.0755 356.077 42.2143C355.443 42.3718 354.724 42.3109 354.122 42.1171C352.906 41.7577 351.834 41.0857 350.702 41.0412C349.586 40.9988 348.595 41.826 347.538 42.4453C347.004 42.7631 346.419 43.066 345.754 43.1722C345.087 43.2724 344.448 43.1625 343.84 43.046C342.648 42.8091 341.423 42.4371 340.398 42.9286C339.367 43.4269 338.599 44.4404 337.555 45.1666C337.039 45.5386 336.386 45.797 335.744 45.8438C335.106 45.9024 334.484 45.8571 333.878 45.8371C333.273 45.8141 332.672 45.8111 332.114 45.9447C331.554 46.0717 331.085 46.394 330.675 46.8202C329.844 47.657 329.241 48.7975 328.131 49.517C327.57 49.8778 326.919 50.0018 326.31 50.0887C325.693 50.1748 325.084 50.2157 324.495 50.3181C323.912 50.4236 323.341 50.5966 322.896 50.9478C322.45 51.3012 322.111 51.8017 321.797 52.3163C321.48 52.8323 321.185 53.3766 320.812 53.8852C320.449 54.3923 319.96 54.8653 319.366 55.1274C318.196 55.6524 316.935 55.7036 315.867 56.2152C314.755 56.6822 314.298 57.8873 313.804 58.9915C313.548 59.5506 313.28 60.1216 312.868 60.6161C312.462 61.1232 311.878 61.4514 311.31 61.6868C310.177 62.1687 308.92 62.4063 308.078 63.2387L307.865 63.0322Z" fill="#4292A8"/>
<rect x="148" y="148" width="124" height="124" rx="62" fill="white"/>
<path opacity="0.53" d="M260.02 218.546C261.787 215.345 260.755 212.086 257.993 209.079C251.585 202.092 238.985 190.456 210.472 190.456C182.39 190.456 171.044 199.574 162.194 208.774C160.686 210.348 158.14 214.685 160.248 218.375C163.152 223.825 166.634 236.091 171.884 233.678C181.848 229.112 196.127 222.741 209.967 222.741C223.696 222.741 237.203 228.763 246.781 233.255C251.533 235.482 256.991 224.048 259.322 219.823C259.352 219.786 260.005 218.583 260.02 218.546Z" fill="#696A72"/>
<path d="M259.5 210.958C256.567 207.431 252.995 204.572 249.149 202.226C245.31 199.857 241.182 197.993 236.95 196.501C232.695 195.046 228.337 193.902 223.904 193.182C219.478 192.424 214.986 192.038 210.494 191.994C201.532 191.868 192.547 193.301 184.053 196.248C179.813 197.741 175.685 199.59 171.794 201.892C167.881 204.164 164.243 206.911 160.976 210.119C163.753 206.465 167.228 203.332 171.007 200.659C174.809 198.008 178.93 195.803 183.244 194.073C187.55 192.306 192.057 191.066 196.631 190.189C201.22 189.365 205.883 188.994 210.538 189.016C215.187 189.113 219.835 189.529 224.409 190.412C228.968 191.318 233.475 192.558 237.774 194.333C242.088 196.07 246.209 198.29 249.966 201.015C253.679 203.763 257.087 207.037 259.5 210.958Z" fill="#666666"/>
<path d="M165.86 226.514C171.622 221.294 178.594 217.403 185.923 214.641C189.591 213.237 193.4 212.198 197.254 211.403C201.122 210.624 205.065 210.238 209.008 210.126C212.958 210.067 216.923 210.342 220.814 210.98C224.705 211.656 228.543 212.614 232.234 213.965C239.637 216.616 246.557 220.522 252.504 225.511C245.844 221.531 238.827 218.331 231.514 216.17C227.853 215.116 224.148 214.255 220.383 213.765C216.634 213.237 212.847 213 209.06 213.096C205.273 213.148 201.486 213.505 197.751 214.166C194.002 214.782 190.311 215.725 186.658 216.831C179.404 219.111 172.365 222.281 165.86 226.514Z" fill="#666666"/>
<path d="M170.688 234.829C176.331 230.834 182.605 227.671 189.206 225.399C195.807 223.12 202.786 221.753 209.848 221.679C213.375 221.672 216.902 221.954 220.369 222.548C223.829 223.172 227.245 224.025 230.542 225.199C237.15 227.5 243.343 230.797 248.978 234.792C242.719 231.859 236.385 229.23 229.844 227.411C226.569 226.528 223.272 225.763 219.931 225.325C216.597 224.842 213.234 224.597 209.877 224.649C206.514 224.642 203.15 224.954 199.816 225.473C196.475 225.956 193.171 226.728 189.889 227.604C183.333 229.409 176.947 231.904 170.688 234.829Z" fill="#666666"/>
<rect x="296" y="148" width="124" height="124" rx="62" fill="white"/>
<path d="M329.841 182.556C330.609 183.412 331.34 184.313 332.085 185.198C332.831 186.077 333.643 186.896 334.521 187.649C335.399 188.402 336.307 189.118 337.274 189.782C338.234 190.454 339.23 191.081 340.345 191.598L340.551 191.391C340.035 190.276 339.407 189.28 338.736 188.32C338.071 187.354 337.355 186.446 336.602 185.567C335.85 184.689 335.03 183.885 334.152 183.132C333.266 182.386 332.373 181.655 331.51 180.888C329.797 179.345 328.063 177.825 326.313 176.312C324.542 174.821 322.807 173.308 321.006 171.846L320.8 172.053C322.261 173.846 323.782 175.588 325.265 177.36C326.778 179.109 328.299 180.844 329.841 182.556Z" fill="#FFCE00"/>
<path d="M334.55 194.114C334.152 193.812 333.738 193.59 333.31 193.406C332.469 193.007 331.509 193.206 330.594 193.14C329.686 193.073 328.771 193.037 327.848 193.022C326.926 193.014 326.003 193 325.073 193.044L325.014 193.332C325.848 193.745 326.697 194.099 327.546 194.461C328.395 194.815 329.251 195.14 330.107 195.45C330.963 195.753 331.768 196.328 332.698 196.292C333.155 196.299 333.628 196.255 334.115 196.137C334.602 196.026 335.097 195.864 335.621 195.539L335.68 195.251C335.34 194.756 334.949 194.409 334.55 194.114Z" fill="#FFCE00"/>
<path d="M343.372 181.375C342.944 180.585 342.494 179.796 342.021 179.021C341.542 178.246 341.062 177.471 340.538 176.718L340.265 176.821C340.353 177.736 340.501 178.637 340.641 179.537C340.789 180.43 340.966 181.323 341.158 182.202C341.35 183.08 341.298 184.054 341.815 184.815C342.051 185.198 342.331 185.575 342.693 185.914C343.04 186.261 343.446 186.586 343.992 186.859L344.265 186.756C344.509 186.188 344.597 185.678 344.634 185.191C344.678 184.697 344.649 184.232 344.575 183.781C344.479 182.866 343.8 182.165 343.372 181.375Z" fill="#FFCE00"/>
<path d="M375.596 191.598C376.71 191.081 377.707 190.454 378.666 189.782C379.633 189.118 380.541 188.402 381.419 187.649C382.298 186.896 383.102 186.077 383.855 185.198C384.601 184.313 385.331 183.42 386.099 182.556C387.642 180.844 389.162 179.109 390.675 177.36C392.166 175.588 393.679 173.854 395.141 172.053L394.934 171.846C393.14 173.308 391.398 174.828 389.627 176.312C387.878 177.817 386.143 179.345 384.431 180.888C383.575 181.655 382.674 182.386 381.788 183.132C380.91 183.877 380.091 184.689 379.338 185.567C378.585 186.446 377.869 187.354 377.205 188.32C376.533 189.28 375.906 190.276 375.389 191.391L375.596 191.598Z" fill="#FFCE00"/>
<path d="M390.859 193.051C389.929 193.007 389.007 193.022 388.084 193.029C387.162 193.044 386.246 193.088 385.339 193.147C384.431 193.214 383.464 193.007 382.622 193.413C382.202 193.59 381.781 193.819 381.382 194.122C380.984 194.417 380.593 194.764 380.238 195.273L380.297 195.561C380.829 195.886 381.323 196.048 381.803 196.159C382.29 196.277 382.755 196.314 383.22 196.314C384.15 196.343 384.955 195.775 385.811 195.472C386.667 195.17 387.523 194.837 388.372 194.483C389.221 194.122 390.07 193.767 390.904 193.354L390.859 193.051Z" fill="#FFCE00"/>
<path d="M371.669 186.749L371.942 186.852C372.496 186.579 372.894 186.254 373.241 185.907C373.596 185.568 373.876 185.191 374.12 184.807C374.636 184.047 374.577 183.073 374.777 182.194C374.976 181.316 375.146 180.43 375.293 179.53C375.433 178.629 375.581 177.736 375.67 176.814L375.397 176.71C374.865 177.463 374.393 178.238 373.913 179.013C373.441 179.788 372.99 180.571 372.562 181.368C372.134 182.158 371.455 182.859 371.352 183.774C371.278 184.224 371.248 184.689 371.293 185.184C371.337 185.671 371.426 186.188 371.669 186.749Z" fill="#FFCE00"/>
<path d="M386.099 237.507C385.331 236.651 384.601 235.751 383.855 234.865C383.11 233.987 382.298 233.167 381.419 232.415C380.541 231.662 379.633 230.946 378.666 230.282C377.707 229.61 376.71 228.982 375.596 228.466L375.389 228.672C375.906 229.787 376.533 230.783 377.205 231.743C377.869 232.71 378.585 233.618 379.338 234.496C380.091 235.374 380.91 236.179 381.788 236.932C382.674 237.677 383.567 238.408 384.431 239.176C386.143 240.718 387.878 242.239 389.627 243.752C391.398 245.243 393.133 246.756 394.934 248.217L395.141 248.011C393.679 246.217 392.159 244.475 390.675 242.704C389.162 240.954 387.642 239.22 386.099 237.507Z" fill="#FFCE00"/>
<path d="M385.819 224.605C384.963 224.302 384.158 223.727 383.228 223.763C382.77 223.756 382.298 223.8 381.811 223.918C381.324 224.029 380.829 224.192 380.305 224.516L380.246 224.804C380.6 225.313 380.992 225.66 381.39 225.956C381.789 226.258 382.202 226.48 382.63 226.664C383.472 227.063 384.431 226.863 385.346 226.93C386.254 226.996 387.169 227.033 388.092 227.048C389.015 227.055 389.937 227.07 390.867 227.026L390.926 226.738C390.092 226.325 389.243 225.97 388.395 225.609C387.538 225.24 386.682 224.907 385.819 224.605Z" fill="#FFCE00"/>
<path d="M374.784 237.861C374.592 236.982 374.644 236.008 374.127 235.248C373.891 234.864 373.61 234.488 373.249 234.148C372.902 233.801 372.496 233.476 371.95 233.203L371.676 233.307C371.433 233.875 371.344 234.384 371.307 234.871C371.263 235.366 371.293 235.831 371.366 236.281C371.47 237.196 372.149 237.89 372.577 238.687C373.005 239.477 373.455 240.267 373.928 241.042C374.407 241.817 374.887 242.592 375.411 243.345L375.684 243.241C375.588 242.326 375.448 241.426 375.308 240.525C375.153 239.632 374.976 238.746 374.784 237.861Z" fill="#FFCE00"/>
<path d="M340.345 228.466C339.23 228.982 338.234 229.61 337.274 230.282C336.307 230.946 335.399 231.662 334.521 232.415C333.643 233.167 332.838 233.987 332.085 234.865C331.34 235.751 330.609 236.644 329.841 237.507C328.299 239.22 326.778 240.954 325.265 242.704C323.774 244.475 322.261 246.21 320.8 248.011L321.006 248.217C322.8 246.756 324.542 245.235 326.313 243.752C328.063 242.246 329.797 240.718 331.51 239.176C332.366 238.408 333.266 237.677 334.152 236.932C335.03 236.186 335.85 235.374 336.602 234.496C337.355 233.618 338.071 232.71 338.736 231.743C339.407 230.783 340.035 229.787 340.551 228.672L340.345 228.466Z" fill="#FFCE00"/>
<path d="M334.13 223.911C333.642 223.793 333.177 223.756 332.712 223.756C331.782 223.727 330.978 224.295 330.122 224.598C329.265 224.901 328.409 225.233 327.56 225.587C326.712 225.949 325.863 226.303 325.029 226.716L325.088 227.004C326.018 227.048 326.94 227.034 327.863 227.026C328.786 227.011 329.701 226.967 330.609 226.908C331.517 226.842 332.484 227.048 333.325 226.642C333.746 226.465 334.166 226.236 334.565 225.934C334.964 225.639 335.355 225.292 335.709 224.782L335.65 224.495C335.111 224.185 334.609 224.022 334.13 223.911Z" fill="#FFCE00"/>
<path d="M344.272 233.315L343.999 233.212C343.446 233.485 343.047 233.81 342.7 234.157C342.346 234.496 342.066 234.873 341.822 235.256C341.305 236.017 341.364 236.991 341.165 237.869C340.966 238.748 340.796 239.633 340.648 240.534C340.508 241.434 340.361 242.327 340.272 243.25L340.545 243.353C341.076 242.6 341.549 241.825 342.029 241.05C342.501 240.275 342.951 239.493 343.379 238.696C343.807 237.906 344.486 237.205 344.59 236.29C344.664 235.84 344.693 235.375 344.649 234.88C344.605 234.385 344.516 233.876 344.272 233.315Z" fill="#FFCE00"/>
<path opacity="0.68" d="M348.133 198.978C351.624 195.228 357.972 175.831 357.972 175.831C357.972 175.831 364.319 195.228 367.811 198.978C370.888 202.292 383.015 208.817 383.015 208.817C383.015 208.817 370.896 215.334 367.811 218.655C364.319 222.405 357.972 241.802 357.972 241.802C357.972 241.802 351.624 222.405 348.133 218.655C345.055 215.334 332.936 208.817 332.936 208.817C332.936 208.817 345.055 202.299 348.133 198.978Z" fill="#F9D023"/>
<path d="M383.723 207.489C382.173 206.625 380.608 205.717 379.073 204.795C377.538 203.879 375.995 202.971 374.489 202.012C372.998 201.052 371.507 200.071 370.164 199.037C369.5 198.506 368.902 198.011 368.496 197.428C368.046 196.816 367.596 196.078 367.182 195.317C365.522 192.254 364.163 188.896 362.798 185.589C361.469 182.253 360.133 178.895 358.871 175.529L357.845 172.798L357.063 175.529C356.067 178.983 354.967 182.43 353.801 185.84C352.583 189.228 351.306 192.623 349.638 195.782C349.217 196.572 348.767 197.34 348.257 198.034C347.778 198.727 347.091 199.266 346.397 199.812C344.995 200.89 343.452 201.827 341.91 202.735C338.802 204.536 335.577 206.167 332.381 207.784L330.514 208.729L332.381 209.843C333.916 210.758 335.481 211.659 337.002 212.604C338.552 213.511 340.072 214.456 341.585 215.401C343.091 216.346 344.597 217.32 345.947 218.375C346.619 218.914 347.224 219.431 347.667 220.029C348.139 220.656 348.597 221.402 349.018 222.169C350.701 225.247 352.14 228.576 353.594 231.86L357.838 241.84L358.118 241.751C357.262 238.223 356.244 234.739 355.1 231.292C354.531 229.565 353.933 227.853 353.262 226.148C352.62 224.443 351.911 222.752 351.077 221.084C350.664 220.243 350.213 219.416 349.638 218.582C349.047 217.689 348.265 217.017 347.542 216.412C346.065 215.209 344.545 214.183 343.017 213.179C341.474 212.183 339.902 211.26 338.33 210.352C337.334 209.806 336.345 209.267 335.341 208.743C337.843 207.215 340.279 205.614 342.692 203.953C344.191 202.912 345.667 201.85 347.091 200.661C347.792 200.063 348.494 199.414 349.047 198.617C349.593 197.842 350.044 197.037 350.457 196.225C351.284 194.594 352.066 192.948 352.767 191.28C353.505 189.619 354.184 187.944 354.886 186.268C355.919 183.796 356.901 181.301 357.867 178.799C358.657 181.397 359.491 183.973 360.414 186.527C361.034 188.239 361.669 189.944 362.362 191.642C363.049 193.339 363.772 195.022 364.628 196.705C365.057 197.546 365.507 198.38 366.112 199.237C366.732 200.152 367.529 200.838 368.26 201.451C369.743 202.684 371.271 203.695 372.821 204.691C375.154 206.19 377.523 207.57 379.937 208.891C378.121 209.954 376.335 211.046 374.556 212.175C373.286 212.995 372.039 213.851 370.799 214.751C369.574 215.674 368.348 216.575 367.204 217.792C366.621 218.435 366.178 219.158 365.802 219.83C365.426 220.516 365.086 221.21 364.769 221.904C364.149 223.299 363.595 224.701 363.071 226.118C362.06 228.96 361.122 231.809 360.311 234.695L360.591 234.798C361.831 232.067 363.027 229.329 364.341 226.657C364.983 225.314 365.654 223.992 366.37 222.708C367.079 221.446 367.839 220.132 368.732 219.276C369.714 218.383 370.939 217.541 372.164 216.752C373.404 215.962 374.674 215.216 375.943 214.464C378.497 212.973 381.125 211.563 383.73 210.175L386.166 208.876L383.723 207.489Z" fill="#666666"/>
</svg>
